<svg width="23" height="25" viewBox="0 0 23 25" fill="none" xmlns="http://www.w3.org/2000/svg">
<path fill-rule="evenodd" clip-rule="evenodd" d="M17.345 0.644109C13.4956 -0.214703 9.50371 -0.214703 5.65429 0.644109L5.23952 0.735696C4.15672 0.977315 3.16224 1.5138 2.36653 2.28554C1.57082 3.05729 1.00505 4.03409 0.732066 5.10743C-0.243696 8.94494 -0.243696 12.9649 0.732066 16.8024C0.992402 17.8261 1.51929 18.7628 2.25931 19.5177C2.99933 20.2726 3.92617 20.8188 4.94588 21.1009L5.51481 24.4908C5.53297 24.5985 5.57972 24.6993 5.65018 24.7828C5.72063 24.8663 5.81223 24.9294 5.91542 24.9655C6.01862 25.0017 6.12964 25.0096 6.23693 24.9884C6.34422 24.9672 6.44385 24.9176 6.52544 24.8449L9.86688 21.8617C12.3752 22.0144 14.8926 21.8142 17.345 21.267L17.761 21.1754C18.8438 20.9338 19.8383 20.3973 20.634 19.6255C21.4297 18.8538 21.9955 17.877 22.2685 16.8036C23.2442 12.9661 23.2442 8.94617 22.2685 5.10865C21.9954 4.03515 21.4295 3.05825 20.6335 2.28649C19.8376 1.51473 18.8428 0.978335 17.7598 0.736917L17.345 0.644109ZM6.68695 5.00852C6.45955 4.97548 6.22768 5.02116 6.02992 5.13796H6.01279C5.55397 5.40661 5.14042 5.74487 4.78804 6.14297C4.4944 6.48123 4.33534 6.82315 4.29374 7.15286C4.26927 7.34825 4.2864 7.54607 4.3439 7.73291L4.36593 7.74512C4.69628 8.7135 5.12696 9.64524 5.65307 10.522C6.33145 11.7535 7.16627 12.8925 8.13682 13.9107L8.16619 13.9523L8.21268 13.9864L8.24082 14.0194L8.27508 14.0487C9.29883 15.0203 10.4427 15.8575 11.6789 16.5399C13.0921 17.308 13.9498 17.6707 14.4649 17.8221V17.8294C14.6154 17.8758 14.7524 17.8966 14.8907 17.8966C15.3293 17.8642 15.7446 17.6862 16.0701 17.391C16.4678 17.0393 16.8042 16.6254 17.0661 16.165V16.1564C17.312 15.6924 17.2288 15.2552 16.874 14.9585C16.1613 14.337 15.3906 13.7849 14.5725 13.3099C14.0244 13.0132 13.4677 13.1927 13.2426 13.4931L12.7617 14.0988C12.5146 14.3992 12.0668 14.3577 12.0668 14.3577L12.0545 14.365C8.7131 13.5139 7.82115 10.1374 7.82115 10.1374C7.82115 10.1374 7.77955 9.67821 8.0891 9.44375L8.69108 8.96017C8.97983 8.72571 9.18048 8.17131 8.87093 7.62423C8.39817 6.80699 7.84616 6.03804 7.22285 5.32846C7.0869 5.16146 6.89625 5.04772 6.6845 5.00729L6.68695 5.00852ZM12.3323 3.54069C12.17 3.54069 12.0144 3.60502 11.8997 3.71952C11.785 3.83403 11.7205 3.98933 11.7205 4.15127C11.7205 4.3132 11.785 4.4685 11.8997 4.58301C12.0144 4.69751 12.17 4.76184 12.3323 4.76184C13.88 4.76184 15.1647 5.26618 16.1815 6.23333C16.7039 6.76209 17.1114 7.38855 17.3781 8.07483C17.646 8.76234 17.7684 9.49626 17.7366 10.2314C17.7332 10.3116 17.7457 10.3916 17.7733 10.467C17.8009 10.5424 17.8432 10.6116 17.8976 10.6706C18.0075 10.79 18.1604 10.8608 18.3226 10.8676C18.4849 10.8744 18.6432 10.8166 18.7627 10.7069C18.8823 10.5972 18.9533 10.4446 18.9601 10.2827C18.998 9.3784 18.8477 8.47609 18.5184 7.63278C18.1877 6.78546 17.6863 6.01489 17.0453 5.36876L17.033 5.35654C15.7716 4.15371 14.1749 3.54069 12.3323 3.54069ZM12.2907 5.54827C12.1284 5.54827 11.9728 5.61259 11.8581 5.7271C11.7434 5.84161 11.6789 5.99691 11.6789 6.15884C11.6789 6.32078 11.7434 6.47608 11.8581 6.59059C11.9728 6.70509 12.1284 6.76942 12.2907 6.76942H12.3115C13.4273 6.8488 14.2397 7.22003 14.8087 7.82938C15.3923 8.45706 15.6945 9.23737 15.6713 10.2021C15.6675 10.364 15.7284 10.5208 15.8405 10.6379C15.9526 10.7551 16.1067 10.823 16.269 10.8267C16.4312 10.8304 16.5883 10.7697 16.7057 10.6578C16.823 10.5459 16.8911 10.3921 16.8948 10.2302C16.9242 8.96383 16.5155 7.8709 15.7055 6.999V6.99655C14.8772 6.11 13.7406 5.64107 12.3727 5.54949L12.3519 5.54704L12.2907 5.54827ZM12.2674 7.5937C12.1856 7.58649 12.1031 7.59582 12.0249 7.62113C11.9467 7.64644 11.8745 7.68721 11.8124 7.74102C11.7504 7.79482 11.6998 7.86055 11.6638 7.93428C11.6278 8.00801 11.607 8.08822 11.6027 8.17014C11.5985 8.25206 11.6108 8.334 11.6389 8.41107C11.6671 8.48813 11.7105 8.55875 11.7666 8.6187C11.8227 8.67864 11.8903 8.72669 11.9654 8.75997C12.0406 8.79326 12.1216 8.81109 12.2038 8.81241C12.7152 8.83928 13.0419 8.99314 13.2475 9.19952C13.4542 9.40711 13.6084 9.74049 13.6366 10.2619C13.6381 10.3439 13.6561 10.4247 13.6896 10.4995C13.7231 10.5743 13.7713 10.6417 13.8314 10.6975C13.8915 10.7533 13.9623 10.7965 14.0394 10.8245C14.1166 10.8525 14.1987 10.8646 14.2806 10.8603C14.3626 10.8559 14.4429 10.8352 14.5167 10.7992C14.5905 10.7632 14.6563 10.7128 14.7101 10.6509C14.7639 10.589 14.8047 10.517 14.8301 10.439C14.8554 10.3611 14.8648 10.2788 14.8576 10.1972C14.8185 9.46451 14.5885 8.8173 14.1174 8.34105C13.6439 7.8648 12.9991 7.63278 12.2674 7.5937Z" fill="#B8B8B8"/>
</svg>
