<svg width="25" height="25" viewBox="0 0 25 25" fill="none" xmlns="http://www.w3.org/2000/svg">
<path d="M12.5001 0C19.4039 0 25.0001 5.59625 25.0001 12.5C25.0001 19.4037 19.4039 25 12.5001 25C10.291 25.0035 8.12088 24.4189 6.21255 23.3062L0.00501761 25L1.69503 18.79C0.581387 16.8811 -0.00367299 14.71 1.73504e-05 12.5C1.73504e-05 5.59625 5.5963 0 12.5001 0ZM8.24006 6.625L7.99006 6.635C7.82821 6.64485 7.67003 6.68737 7.52506 6.76C7.38946 6.83678 7.26568 6.93278 7.15756 7.045C7.00755 7.18625 6.92255 7.30874 6.8313 7.4275C6.36895 8.02862 6.12002 8.76664 6.1238 9.52499C6.1263 10.1375 6.2863 10.7337 6.5363 11.2912C7.04755 12.4187 7.88881 13.6125 8.99881 14.7187C9.26632 14.985 9.52882 15.2525 9.81132 15.5012C11.1906 16.7156 12.8342 17.5913 14.6113 18.0587L15.3213 18.1675C15.5526 18.18 15.7839 18.1625 16.0164 18.1512C16.3804 18.1324 16.7359 18.0339 17.0576 17.8625C17.2213 17.7782 17.3811 17.6864 17.5364 17.5875C17.5364 17.5875 17.5901 17.5525 17.6926 17.475C17.8614 17.35 17.9651 17.2612 18.1051 17.115C18.2089 17.0075 18.2989 16.8812 18.3676 16.7375C18.4651 16.5337 18.5626 16.145 18.6026 15.8212C18.6326 15.5737 18.6239 15.4387 18.6201 15.355C18.6151 15.2212 18.5039 15.0825 18.3826 15.0237L17.6551 14.6975C17.6551 14.6975 16.5676 14.2237 15.9026 13.9212C15.833 13.8909 15.7584 13.8735 15.6826 13.87C15.5971 13.8612 15.5107 13.8708 15.4292 13.8982C15.3477 13.9256 15.273 13.9701 15.2101 14.0287C15.2038 14.0262 15.1201 14.0975 14.2163 15.1925C14.1645 15.2622 14.093 15.3149 14.0111 15.3438C13.9292 15.3728 13.8405 15.3766 13.7563 15.355C13.6749 15.3332 13.5951 15.3056 13.5176 15.2725C13.3626 15.2075 13.3088 15.1825 13.2026 15.1375C12.4852 14.8244 11.8209 14.4014 11.2338 13.8837C11.0763 13.7462 10.9301 13.5962 10.7801 13.4512C10.2883 12.9803 9.85972 12.4475 9.50507 11.8662L9.43132 11.7475C9.37834 11.6677 9.33552 11.5816 9.30382 11.4912C9.25632 11.3075 9.38007 11.16 9.38007 11.16C9.38007 11.16 9.68382 10.8275 9.82507 10.6475C9.96257 10.4725 10.0788 10.3025 10.1538 10.1812C10.3013 9.94374 10.3476 9.69999 10.2701 9.51124C9.92007 8.65624 9.55757 7.80499 9.18507 6.96C9.11131 6.7925 8.89256 6.6725 8.69381 6.64875C8.62631 6.64125 8.55881 6.63375 8.49131 6.62875C8.32344 6.62041 8.15523 6.62208 7.98756 6.63375L8.23881 6.62375L8.24006 6.625Z" fill="#B8B8B8"/>
</svg>
